<?xml version="1.0" standalone="no"?>
<!DOCTYPE svg PUBLIC "-//W3C//DTD SVG 20010904//EN"
 "http://www.w3.org/TR/2001/REC-SVG-20010904/DTD/svg10.dtd">
<svg version="1.0" xmlns="http://www.w3.org/2000/svg"
 width="83763.779528pt" height="58251.968504pt" viewBox="0 0 83763.779528 58251.968504"
 preserveAspectRatio="xMidYMid meet">
<metadata>
Created by potrace 1.16, written by Peter Selinger 2001-2019
</metadata>
<g transform="translate(0.000000,58251.968504) scale(7.086614,-7.086614)"
fill="#000000" stroke="none">
<path d="M5836 7975 l-15 -15 -35 0 -36 0 0 10 0 10 -10 0 -9 0 5 -15 6 -15
43 0 44 0 6 10 6 10 32 9 32 9 -27 1 -27 1 -15 -15z"/>
<path d="M5923 7961 l11 -31 37 0 36 0 7 -37 6 -38 0 -77 0 -77 -32 -9 -33 -8
-1 -25 -1 -24 4 23 4 22 28 0 28 0 27 21 26 20 0 20 0 19 -9 0 -9 0 -5 -7 -4
-8 3 12 3 12 -9 6 -10 6 0 80 0 79 -22 1 -23 1 -22 -2 -21 -1 -4 22 -3 22 -12
4 -12 4 12 -30z"/>
<path d="M5515 7969 l-100 -7 -155 -11 -155 -10 -204 -12 -203 -12 -14 -15
-15 -14 -60 6 -61 5 -5 -19 -5 -20 -15 0 -15 0 7 -22 8 -23 2 -109 2 -110 11
-4 11 -3 -5 125 -4 126 10 0 10 0 0 14 0 13 66 2 66 2 21 13 22 14 95 6 95 7
50 4 50 5 115 9 115 10 110 7 110 6 105 7 105 7 -35 4 -35 5 -100 -6z"/>
<path d="M5503 7613 l-13 -5 0 -48 0 -48 13 -4 12 -5 3 -157 4 -157 -12 -14
-12 -15 22 0 23 0 -8 180 -7 180 36 0 36 0 0 34 0 34 -6 16 -6 16 -37 -1 -36
-1 -12 -5z m87 -48 l0 -35 -43 0 -44 0 1 35 1 35 43 0 42 0 0 -35z"/>
<path d="M4560 7600 l0 -9 22 -21 22 -20 27 0 28 0 7 -35 6 -35 14 0 14 0 0
10 0 10 -10 0 -10 0 0 23 0 23 -12 12 -12 12 -17 0 -16 0 -26 20 -25 20 -6 0
-6 0 0 -10z"/>
<path d="M5951 7595 l-1 -20 10 -15 10 -15 -1 15 0 15 -9 20 -9 20 0 -20z"/>
<path d="M5310 7527 l-55 -8 -53 -4 -54 -3 -6 -7 -6 -6 79 5 80 5 20 5 20 4
73 1 72 1 0 8 0 8 -57 -1 -58 0 -55 -8z"/>
<path d="M5965 7435 l5 -100 30 -550 29 -550 6 -130 6 -130 5 -32 5 -32 182 6
182 7 39 0 39 1 7 -25 7 -26 2 -152 2 -152 -20 0 -20 0 -3 -22 -3 -23 -40 -2
-40 -1 23 5 22 4 0 10 0 10 -7 -4 -8 -5 -150 -6 -150 -7 -152 -10 -152 -10
-123 1 -123 2 -765 -4 -765 -4 -19 10 -19 11 -4 -12 -5 -13 -19 0 -19 0 0 9 0
10 -22 -6 -23 -6 -342 -4 -342 -3 -131 0 -130 0 0 -9 0 -9 25 -4 24 -5 -5 8
-5 9 98 0 99 0 13 -12 14 -13 -7 12 -6 11 477 -3 478 -4 60 -1 60 -2 565 6
565 6 13 5 12 4 0 -8 0 -8 43 8 42 8 20 0 20 1 -15 -11 -15 -11 20 7 20 8 125
3 125 4 220 10 220 10 108 -6 107 -6 0 24 0 24 108 1 107 0 185 8 185 7 4 4 4
4 -4 4 -4 4 -248 -8 -249 -9 -12 5 -11 4 -13 29 -13 28 3 144 3 144 65 1 65 1
215 7 215 7 59 9 60 9 25 -5 26 -6 -15 11 -15 11 18 0 17 0 0 -7 0 -8 49 0 49
0 -11 8 -12 8 60 -7 60 -7 15 3 15 2 63 -1 62 -2 0 14 0 14 -62 -3 -63 -4 -20
-4 -20 -3 -9 5 -8 5 -92 -3 -91 -2 -50 -3 -50 -3 -105 -6 -105 -6 -120 -6
-120 -6 -50 -3 -50 -3 -266 -7 -266 -7 -6 24 -6 23 0 103 -1 103 -10 182 -9
182 -6 150 -5 150 -5 90 -6 90 -5 70 -5 70 -4 35 -4 35 -7 135 -7 135 -9 15
-9 15 6 -100z"/>
<path d="M4810 7512 l-85 -3 -10 -11 -10 -10 135 6 135 6 69 0 69 0 -7 7 -7 8
-102 0 -102 0 -85 -3z"/>
<path d="M4180 7492 l0 -9 -32 -9 -33 -10 -24 6 -23 5 -40 -3 -39 -4 4 -12 4
-11 39 0 39 1 6 -10 7 -9 51 26 52 25 32 -9 32 -9 50 -1 50 -1 12 -10 12 -10
10 7 10 6 30 -16 30 -15 7 11 7 11 -10 7 -10 6 -5 14 -4 14 -110 4 -109 3 -22
5 -23 5 0 -8z"/>
<path d="M3840 7454 l-75 -15 -70 -2 -70 -3 -30 -13 -30 -13 13 -5 12 -5 31
11 30 10 43 -5 43 -6 56 16 55 16 56 0 56 0 0 9 0 9 -16 6 -16 6 -6 -1 -7 -1
-75 -14z"/>
<path d="M4480 7429 l0 -10 23 2 22 3 33 -8 32 -8 0 -14 0 -14 -20 0 -20 0 0
-8 0 -9 7 -6 6 -7 13 11 13 10 5 -33 5 -33 5 -135 6 -135 6 -107 6 -108 -11 0
-11 0 6 -25 6 -25 -11 0 -10 0 6 -32 6 -33 8 -9 9 -10 0 -48 0 -48 -11 0 -11
0 -19 23 -20 22 10 -20 10 -20 14 -19 15 -20 -6 -38 -5 -38 11 0 10 0 6 15 5
15 15 0 15 0 6 -42 5 -43 2 -30 2 -30 -2 -184 -2 -183 -132 3 -133 4 -3 -16
-3 -17 -20 -5 -19 -5 -140 5 -140 6 0 -9 0 -9 164 -3 164 -3 7 10 6 11 10 -5
9 -6 6 15 6 16 119 0 119 0 2 153 1 152 0 90 -1 90 -14 27 -15 28 -8 -8 -8 -7
6 24 6 25 -16 33 -15 33 5 27 5 28 -9 17 -10 18 18 0 17 0 -19 13 -18 14 7 12
7 11 11 -6 11 -7 -6 25 -7 25 -5 69 -5 69 -5 100 -5 100 -10 120 -10 120 0 30
0 30 -9 -14 -8 -13 -21 11 -21 11 -30 0 -31 0 0 -11z m163 -863 l6 -14 -14
-19 -14 -18 1 33 1 32 7 0 8 0 5 -14z"/>
<path d="M3381 7403 l-10 -18 -1 13 0 12 -10 0 -9 0 5 -15 6 -15 18 0 18 0 5
13 4 12 75 0 76 0 -11 7 -12 8 -72 0 -72 0 -10 -17z"/>
<path d="M3039 7392 l-47 -3 -18 -20 -17 -19 10 -56 10 -55 -8 -52 -9 -52 9
-30 9 -30 1 10 2 10 4 73 4 74 -9 51 -10 50 15 17 14 16 38 4 38 3 30 -1 30
-2 50 -1 50 0 8 -12 9 -12 5 13 5 12 18 0 19 0 6 10 6 9 -113 -2 -113 -2 -46
-3z"/>
<path d="M3755 7369 l-7 -10 6 -6 6 -7 11 11 11 11 -10 6 -11 6 -6 -11z"/>
<path d="M4056 7363 l-7 -18 12 12 13 13 -6 5 -6 6 -6 -18z"/>
<path d="M3858 7343 l12 -5 13 5 12 5 -25 0 -25 0 13 -5z"/>
<path d="M4010 7340 l0 -10 15 0 15 0 0 10 0 10 -15 0 -15 0 0 -10z"/>
<path d="M3745 7289 l-7 -10 5 -5 5 -5 5 16 6 15 -4 0 -4 0 -6 -11z"/>
<path d="M3050 7279 l0 -10 10 6 10 6 0 5 0 4 -10 0 -10 0 0 -11z"/>
<path d="M5486 7139 l6 -11 9 -146 8 -147 7 -50 6 -50 11 -7 11 -7 46 6 46 5
12 -213 12 -214 0 -147 0 -148 -62 -2 -63 -2 -45 -2 -45 -1 -120 -3 -120 -2
-5 2 -5 2 -102 3 -103 3 0 -9 0 -9 38 -2 37 -1 60 -3 60 -2 130 0 129 -1 6 4
5 3 104 6 105 7 8 5 8 5 -4 187 -5 187 -10 168 -11 168 3 11 2 11 -58 -2 -57
-2 -5 13 -5 13 -8 118 -7 117 8 0 8 0 -8 13 -8 12 -1 40 -1 41 -7 22 -7 22
-10 0 -10 0 7 -11z"/>
<path d="M2973 7053 l-1 -18 -7 -67 -8 -68 12 0 11 0 1 13 1 12 3 73 3 72 -7
0 -7 0 -1 -17z"/>
<path d="M3117 7047 l-5 -14 8 -14 9 -13 7 17 7 18 -10 10 -10 10 -6 -14z"/>
<path d="M3595 7050 l-6 -10 25 0 25 0 6 10 6 10 -25 0 -25 0 -6 -10z"/>
<path d="M4461 7007 l4 -3 20 -14 20 -15 -14 18 -13 17 -11 0 -10 0 4 -3z"/>
<path d="M3006 6908 l-6 -23 0 -27 0 -27 10 -6 10 -6 0 55 0 56 -4 0 -4 0 -6
-22z"/>
<path d="M2970 6781 l0 -60 9 -5 8 -5 1 64 1 65 -9 0 -10 0 0 -59z"/>
<path d="M3112 6732 l-12 -29 8 -22 8 -22 13 24 13 25 -8 26 -9 26 -13 -28z"/>
<path d="M3353 6693 l17 -4 18 4 17 5 -35 0 -35 0 18 -5z"/>
<path d="M3430 6664 l0 -35 9 6 10 5 -1 30 -1 30 -9 0 -8 0 0 -36z"/>
<path d="M2963 6668 l-10 -13 -5 -21 -5 -21 9 -17 9 -16 8 0 8 0 1 30 1 30 6
20 6 20 -9 0 -10 0 -9 -12z"/>
<path d="M3400 6635 l0 -35 -30 0 -30 0 0 -7 0 -8 42 2 43 2 13 0 12 1 0 18 0
17 -10 -15 -10 -15 -10 15 -10 15 5 23 5 22 -10 0 -10 0 0 -35z"/>
<path d="M4392 6648 l-12 -12 0 -10 0 -10 13 17 12 16 55 4 55 3 -55 2 -56 2
-12 -12z"/>
<path d="M4441 6572 l-43 -15 -9 14 -9 14 0 -16 0 -16 36 -6 35 -6 12 5 12 4
13 20 12 20 -7 -1 -8 -2 -44 -15z"/>
<path d="M2961 6528 l-1 -48 10 0 10 0 -1 28 0 27 -9 20 -9 20 0 -47z"/>
<path d="M4445 6520 l6 -10 32 1 32 1 -25 8 -25 8 -13 1 -13 1 6 -10z"/>
<path d="M3756 6465 l-6 -17 0 -6 0 -7 11 15 11 15 -6 -40 -5 -40 17 35 18 35
-11 4 -10 4 -6 9 -6 10 -7 -17z"/>
<path d="M4560 6434 l0 -3 21 -12 21 -11 -4 13 -4 12 -17 3 -17 2 0 -4z"/>
<path d="M2965 6357 l-7 -42 0 -117 0 -116 9 -19 9 -18 -4 -83 -4 -84 -139 4
-139 3 0 -6 0 -6 -38 -7 -38 -6 -197 0 -197 -1 0 -8 0 -9 423 7 422 6 745 0
745 0 12 -50 13 -50 -5 51 -5 52 16 6 16 6 24 0 25 0 18 -9 17 -10 14 9 14 9
-8 8 -8 8 -321 -3 -322 -3 19 14 18 13 -5 20 -5 19 -1 -24 -1 -23 -13 11 -14
11 -18 -20 -18 -20 -113 0 -112 0 -5 13 -5 12 -1 -12 -1 -13 -24 0 -25 0 -7
12 -7 11 13 -8 13 -8 -7 12 -7 11 -11 -6 -11 -7 -11 15 -11 14 -17 7 -18 6
-22 -9 -23 -9 26 0 27 -1 6 -16 6 -16 0 -5 0 -5 -137 7 -138 6 -62 0 -63 1 0
10 0 10 -15 -12 -15 -12 -37 8 -38 9 -40 -6 -40 -6 13 -2 12 -1 0 -10 0 -11
-62 3 -63 3 -2 40 -1 40 7 -35 7 -35 5 38 5 38 -13 11 -13 10 0 13 0 13 9 4 9
3 -9 53 -8 54 4 133 5 134 -9 5 -8 6 -8 -43z"/>
<path d="M3710 6380 l0 -9 19 -11 20 -10 10 0 11 0 0 9 0 9 -30 11 -30 10 0
-9z"/>
<path d="M3085 6360 l-7 -22 5 -5 5 -5 7 22 7 22 -5 5 -5 5 -7 -22z"/>
<path d="M3706 6245 l-7 -26 -9 6 -10 6 0 -5 0 -5 18 -10 18 -10 1 35 1 34 -3
0 -3 0 -6 -25z"/>
<path d="M3110 6070 l0 -10 9 0 10 0 6 10 6 10 -15 0 -16 0 0 -10z"/>
<path d="M8973 6063 l-33 -4 0 -8 0 -8 -157 -8 -158 -8 -217 -1 -217 -1 -13
-13 -12 -12 -31 0 -30 0 -15 -10 -15 -10 56 0 57 0 12 15 12 15 92 0 92 0 10
-8 9 -8 164 7 164 7 51 7 51 7 52 3 52 4 18 10 19 9 69 0 70 1 74 -2 75 -2 3
-60 3 -60 4 -90 4 -90 1 -76 1 -77 38 9 37 9 66 0 67 0 98 9 99 10 109 6 109
5 116 10 116 9 180 12 180 12 175 18 175 18 -90 -5 -90 -6 -130 -8 -130 -8
-325 -21 -325 -21 -210 -15 -210 -15 -20 -3 -20 -2 -2 75 -1 75 -6 139 -5 139
-8 8 -8 7 -135 5 -135 5 -32 -5z"/>
<path d="M4854 5996 l-31 -11 13 -13 13 -12 33 1 33 2 -22 4 -23 4 0 10 0 9
53 1 52 1 -25 8 -25 8 -20 0 -20 0 -31 -12z"/>
<path d="M4001 5984 l1 -19 5 13 5 13 -6 6 -6 6 1 -19z"/>
<path d="M7754 5989 l-6 -10 -49 4 -49 5 0 -8 0 -7 28 -5 27 -5 60 7 60 6 -17
7 -18 7 -15 5 -14 4 -7 -10z"/>
<path d="M7830 5989 l0 -6 62 -7 62 -6 9 9 9 9 -71 4 -71 3 0 -6z"/>
<path d="M4718 5983 l-18 -4 2 -47 1 -47 4 43 4 42 45 0 44 0 0 10 0 10 -32
-1 -33 -1 -17 -5z"/>
<path d="M7625 5980 l-6 -10 10 0 11 0 0 10 0 10 -4 0 -5 0 -6 -10z"/>
<path d="M8018 5983 l13 -5 6 6 6 6 -19 -1 -19 -1 13 -5z"/>
<path d="M2033 5853 l-23 -4 0 -10 0 -9 20 0 20 0 0 -8 0 -9 -25 -11 -26 -12
2 -187 2 -188 -414 -2 -414 -2 -364 -5 -364 -6 -3 -3 -3 -3 -3 -171 -3 -171 8
-9 9 -8 316 5 317 4 95 -2 95 -2 215 -1 215 -1 152 6 151 7 0 -415 0 -416 -51
0 -52 0 -13 -8 -13 -9 68 -1 68 -2 28 6 27 6 0 9 0 9 -20 0 -20 0 0 13 -1 12
-2 403 -2 403 -140 0 -140 0 -280 0 -280 1 -45 0 -45 0 -323 -7 -323 -7 2 171
3 170 301 1 300 1 125 4 125 5 356 0 357 0 -2 192 -1 193 20 3 20 4 7 12 8 11
0 -13 0 -13 11 6 10 7 -16 18 -16 18 38 6 38 6 38 -5 38 -5 -6 10 -6 10 -72
-1 -72 -2 -22 -4z"/>
<path d="M11360 5759 l-205 -8 -55 -10 -55 -10 80 5 80 5 200 8 200 7 3 -2 3
-1 14 -149 15 -149 0 -12 0 -11 -47 -11 -48 -10 -78 -11 -78 -10 -133 0 -133
0 -40 -14 -40 -14 -74 0 -74 1 -75 -11 -75 -11 -190 -12 -190 -11 -97 -7 -96
-6 -9 -9 -8 -9 110 7 110 7 100 9 100 9 134 6 133 5 12 7 11 7 115 9 115 8 27
1 27 1 -3 6 -4 6 81 -2 82 -3 135 16 135 16 37 5 37 5 3 16 3 17 -12 110 -13
110 -6 53 -5 52 -27 -2 -27 -2 -205 -7z"/>
<path d="M10949 5736 l-5 -5 -42 -2 -42 -3 0 -11 0 -12 48 8 47 8 45 1 45 1
-20 9 -20 9 -26 0 -26 1 -4 -4z"/>
<path d="M4573 5675 l0 -40 4 23 4 22 -4 18 -5 17 1 -40z"/>
<path d="M8655 5663 l-50 -4 -7 -7 -7 -7 52 -3 51 -3 2 -2 2 -2 6 -135 7 -135
10 -195 9 -195 16 -255 15 -255 9 -3 10 -4 -6 -10 -6 -9 1 -144 1 -144 16
-273 16 -273 7 -110 8 -110 1 70 2 70 -10 225 -9 225 -13 228 -12 228 14 9 14
9 7 -5 8 -4 5 9 6 9 -18 7 -17 6 -4 -1 -4 -2 -8 14 -9 13 2 55 1 55 7 -55 7
-55 1 75 1 75 -8 -20 -8 -19 -5 27 -5 27 7 0 6 0 2 53 1 52 -10 -25 -9 -25 4
85 4 85 -7 -20 -8 -20 -7 130 -6 130 -10 170 -10 170 -3 112 -2 113 -5 -2 -5
-2 -50 -3z"/>
<path d="M8469 5646 l-4 -4 -230 -6 -230 -6 -114 -6 -113 -6 -17 -3 -16 -3 -7
-1 -8 -1 0 -10 0 -10 68 2 67 2 5 8 6 8 194 5 195 5 110 6 110 5 35 9 35 8
-41 1 -41 1 -4 -4z"/>
<path d="M4564 5568 l-11 -48 8 0 9 0 6 24 6 24 -4 23 -3 24 -11 -47z"/>
<path d="M7228 5592 l-138 -3 0 -9 0 -9 148 4 147 5 158 4 159 4 5 6 6 6 -174
-2 -174 -3 -137 -3z"/>
<path d="M2483 5492 l-23 -3 0 -22 1 -22 10 18 10 17 10 -6 9 -5 178 2 177 2
25 2 25 2 25 11 25 11 -47 0 -48 1 0 -10 0 -10 -17 0 -18 0 14 9 14 9 -174 -2
-174 -1 -22 -3z"/>
<path d="M3028 5473 l13 -5 6 6 6 6 -19 -1 -19 -1 13 -5z"/>
<path d="M3398 5473 l12 -5 13 5 12 5 -25 0 -25 0 13 -5z"/>
<path d="M2459 5034 l0 -409 0 -202 1 -203 -11 0 -11 0 9 -12 10 -13 2 -579 1
-579 187 1 186 1 10 10 11 11 2 17 3 18 11 3 10 4 17 16 16 16 -11 4 -11 3
-25 -18 -25 -18 -1 -22 0 -22 -142 -2 -143 -2 -32 0 -33 -1 -6 7 -7 6 -3 1182
-3 1182 -6 5 -5 5 -1 -409z"/>
<path d="M9715 5273 l-50 -2 -178 -12 -178 -12 -3 -6 -3 -6 8 -125 8 -125 12
-237 12 -238 -16 -18 -17 -19 0 -5 0 -6 68 4 67 4 33 5 32 6 0 -6 0 -5 -12
-19 -11 -18 6 -17 6 -16 18 0 17 0 -20 14 -19 15 13 13 13 13 9 -15 10 -15 -2
25 -3 24 54 8 55 8 8 -8 7 -7 -29 -95 -29 -95 -63 -182 -63 -181 -19 -21 -18
-20 5 -16 6 -15 -13 0 -14 0 -10 -29 -10 -29 10 -10 10 -10 -22 -68 -21 -69
-5 -19 -6 -19 11 7 11 7 0 -13 1 -13 10 18 11 18 -5 13 -5 13 25 72 25 72 -12
14 -12 15 16 6 16 6 0 14 0 14 10 0 9 0 -5 15 -6 15 15 0 15 0 25 83 26 82 11
45 12 45 20 65 20 65 34 101 34 101 0 12 0 13 -127 -7 -128 -8 -23 -1 -24 -1
-3 45 -4 45 -5 125 -6 125 -14 200 -14 200 4 4 4 4 227 11 228 11 102 0 101 0
-4 7 -4 7 22 3 23 4 -135 -1 -135 0 -50 -2z m-368 -465 l-5 -13 -1 19 -1 19 6
-6 6 -6 -5 -13z"/>
<path d="M10050 5270 l-15 -10 20 0 20 0 15 10 15 10 -20 0 -20 0 -15 -10z"/>
<path d="M9220 4464 l0 -24 15 0 15 0 0 -14 0 -14 16 -13 17 -14 -8 25 -7 25
-14 14 -13 14 16 12 17 13 -27 0 -27 0 0 -24z"/>
<path d="M9275 4470 l-6 -10 15 0 16 0 0 10 0 10 -9 0 -10 0 -6 -10z"/>
<path d="M8879 4451 l10 -19 -20 -72 -20 -73 4 -10 3 -10 17 53 17 52 0 19 0
18 20 14 21 15 -16 16 -16 16 -15 0 -15 0 10 -19z"/>
<path d="M9292 4371 l4 -12 7 0 7 1 1 7 1 8 -12 4 -12 4 4 -12z"/>
<path d="M8801 4304 l1 -19 5 13 5 13 -6 6 -6 6 1 -19z"/>
<path d="M8830 4259 l0 -9 20 0 20 0 0 4 0 4 -20 5 -20 5 0 -9z"/>
<path d="M1591 4210 l-23 -10 6 -17 7 -17 15 -45 15 -46 14 -19 15 -20 7 7 6
7 -15 17 -16 18 -6 35 -7 35 -2 25 -2 25 134 -2 133 -2 -5 6 -6 5 -123 4 -123
4 -24 -10z"/>
<path d="M2082 4196 l5 -24 -34 -38 -33 -38 0 -9 0 -10 4 4 3 4 41 47 40 47
-5 21 -5 20 -10 0 -10 0 4 -24z"/>
<path d="M2423 4195 l0 -15 9 0 8 0 0 9 0 10 -8 5 -9 5 0 -14z"/>
<path d="M1644 4015 l6 -20 43 -109 42 -108 21 -8 21 -8 6 -31 6 -31 -5 -13
-5 -14 61 -154 61 -154 40 -98 40 -99 -3 -3 -3 -3 -130 -57 -130 -57 -32 -11
-33 -10 0 -14 0 -13 10 0 11 0 137 63 137 64 28 11 27 12 0 10 0 11 -100 246
-99 247 11 7 11 7 -23 56 -22 56 -13 0 -12 0 -16 38 -16 37 -27 70 -26 70 -16
15 -15 15 7 -20z"/>
<path d="M9356 3575 l-8 -20 -34 -99 -34 -100 13 -8 12 -7 160 -53 160 -53 13
-3 12 -3 0 16 0 17 38 -7 37 -7 140 -47 140 -47 0 -23 0 -24 130 -43 130 -44
48 -16 48 -16 -3 -31 -3 -32 -32 3 -33 2 0 -10 0 -10 33 0 34 0 6 6 6 6 68 4
68 4 65 11 65 12 10 7 10 6 70 13 70 12 50 9 50 9 130 15 129 16 8 -13 8 -12
0 -16 0 -16 -15 -43 -15 -43 0 -76 1 -76 14 -25 14 -25 1 -12 0 -12 -30 -31
-29 -30 -68 -1 -68 -1 -25 1 -25 2 -80 -16 -80 -15 -124 0 -124 0 -61 43 -61
42 -107 3 -108 4 0 -12 0 -12 58 3 57 2 43 -1 43 -2 -3 -27 -3 -28 -20 2 -20
3 -110 -11 -109 -10 -11 -8 -10 -9 -92 -4 -92 -4 5 8 5 8 -98 -5 -98 -5 -185
-11 -185 -10 -85 -4 -85 -4 0 -1 0 0 -130 -6 -130 -6 -4 -4 -4 -4 220 3 219 4
10 5 10 6 194 6 195 6 62 6 62 5 18 -9 18 -8 93 6 93 6 8 12 7 11 134 8 135 8
0 28 -1 27 6 0 6 0 54 -35 54 -35 31 -5 30 -6 130 11 130 11 60 4 60 5 84 6
84 6 28 31 29 31 0 19 0 18 -15 28 -14 29 5 81 5 82 9 25 10 25 0 28 0 29 -16
12 -15 13 -88 -11 -88 -12 -34 0 -34 0 -75 -16 -75 -16 -85 -21 -85 -20 -102
-11 -103 -12 0 21 0 20 -9 13 -8 14 -169 57 -169 57 0 23 0 23 -65 20 -65 20
-10 8 -10 8 -85 25 -85 25 -27 6 -27 6 -8 -14 -8 -15 -165 51 -165 50 -4 4 -4
3 13 33 13 33 14 16 13 16 0 21 0 22 9 0 9 0 -5 23 -5 22 11 -15 11 -15 -1 15
-1 15 -7 25 -7 25 -8 -20z m-23 -1052 l-13 -5 -12 5 -13 5 25 0 25 0 -12 -5z"/>
<path d="M8817 3300 l6 -80 -105 0 -105 0 -76 -6 -77 -7 0 22 0 21 -11 0 -11
0 5 -20 5 -20 -29 0 -29 0 -1 13 -1 12 1 8 1 7 -10 0 -10 0 0 -19 0 -20 -9 -5
-8 -5 -214 -7 -214 -6 -9 -8 -9 -9 154 6 154 5 85 6 85 7 52 -5 51 -5 -4 7 -5
8 63 2 63 2 60 2 60 2 53 1 53 1 -2 85 -2 85 -7 0 -8 0 5 -80z"/>
<path d="M7818 3185 l-3 -3 -175 -6 -175 -6 -75 -5 -75 -5 -185 -5 -185 -5
-339 -10 -339 -10 -6 -4 -6 -4 -385 -6 -385 -7 -238 -4 -239 -5 -10 -6 -10 -7
-7 11 -7 11 -57 -6 -57 -6 0 -6 0 -6 202 2 203 1 335 8 335 8 60 1 60 1 315 8
315 8 95 7 95 7 50 -7 50 -6 17 8 17 9 42 0 41 0 -5 -19 -4 -18 18 4 19 5 0
12 1 11 10 -17 10 -18 -12 -21 -11 -21 13 4 13 4 7 27 7 26 -11 4 -12 4 7 8 8
8 92 3 93 2 105 6 105 5 178 7 178 7 -3 2 -3 2 -37 6 -36 5 -4 -3z"/>
<path d="M7901 3144 l1 -19 5 13 5 13 -6 6 -6 6 1 -19z"/>
<path d="M8135 3150 l6 -10 5 0 4 0 0 10 0 10 -11 0 -10 0 6 -10z"/>
<path d="M7638 3133 l12 -5 13 5 12 5 -25 0 -25 0 13 -5z"/>
<path d="M4397 3123 l-8 -13 6 -10 6 -10 -30 0 -31 0 0 11 0 11 -13 -11 -13
-10 -230 -7 -229 -6 -165 -3 -165 -3 -77 -2 -76 -3 -14 -8 -13 -8 257 2 258 2
0 8 0 8 48 0 47 -1 188 3 188 3 55 -6 55 -6 5 7 4 8 173 -1 172 -1 25 -12 25
-13 0 22 0 21 -217 -2 -217 -3 -3 23 -3 22 -8 -12z"/>
<path d="M2908 3104 l-8 -7 0 -23 0 -23 -22 -5 -23 -5 127 5 127 4 20 8 20 7
-114 -3 -113 -4 -4 27 -3 27 -7 -8z"/>
<path d="M7900 3085 l0 -15 10 0 9 0 -5 15 -6 15 -4 0 -4 0 0 -15z"/>
<path d="M7640 3070 l0 -10 15 0 15 0 0 10 0 10 -15 0 -15 0 0 -10z"/>
<path d="M3210 3060 l-55 -7 93 -1 92 -2 0 10 0 10 -37 -2 -38 -1 -55 -7z"/>
<path d="M1570 3039 l-45 -21 -64 -24 -64 -24 -59 -27 -58 -26 0 -24 0 -24
-52 -24 -53 -23 -115 -51 -115 -50 -3 -26 -3 -25 -19 0 -18 0 -49 22 -48 23
-265 4 -265 4 -63 0 -63 1 -7 -10 -7 -11 -21 -11 -21 -11 -7 -157 -6 -157 17
-20 18 -19 25 -13 26 -13 264 -7 265 -7 81 25 82 25 36 24 36 23 0 9 0 8 -22
-16 -23 -16 -43 -20 -44 -20 -11 0 -12 0 -40 -14 -40 -14 -265 8 -265 7 -28
13 -27 13 -6 21 -5 21 3 144 3 145 30 17 30 18 35 0 35 -1 270 -2 270 -2 70
-23 70 -23 23 -9 23 -9 -3 37 -3 37 130 54 130 54 28 8 29 9 14 12 14 11 0 19
0 18 48 21 47 22 45 15 45 15 68 34 68 34 15 0 14 0 0 10 0 10 -17 0 -18 0
-45 -21z"/>
<path d="M6120 2739 l-175 -7 -150 -2 -150 -2 30 -8 30 -8 -32 -1 -33 -1 0 8
0 7 -247 -3 -248 -3 -12 -4 -13 -4 0 -66 0 -65 24 -9 23 -9 6 -59 6 -58 6 -20
6 -21 -19 -22 -19 -22 -12 0 -11 0 0 -96 0 -96 20 -5 20 -5 0 -64 0 -63 35 -7
35 -6 35 6 35 7 1 32 1 32 -2 22 -1 22 23 12 23 13 25 3 25 3 133 3 132 3 1
-16 2 -15 1 -50 1 -50 23 1 22 0 45 2 45 2 0 59 0 59 48 4 47 5 21 -8 21 -7
44 10 44 10 128 0 127 0 0 10 0 11 -202 -9 -203 -8 -42 2 -43 2 -5 -23 -6 -24
3 -39 3 -38 -52 -4 -53 -4 0 65 0 66 -92 3 -93 3 -90 -10 -90 -10 -12 -8 -13
-8 0 -54 0 -54 -18 -10 -19 -10 -29 4 -29 4 -7 0 -8 1 0 65 0 65 -14 0 -14 0
-6 16 -6 16 0 64 0 65 31 26 31 26 -5 46 -6 46 -6 35 -6 35 -5 23 -5 23 -12
-2 -12 -1 -12 1 -13 1 0 48 0 47 8 10 7 10 155 2 155 1 -24 -5 -24 -5 13 -8
12 -8 72 5 71 5 14 11 15 12 -7 -12 -8 -12 88 4 88 4 230 11 230 12 30 2 30 1
3 -53 3 -52 -18 -7 -18 -7 -7 -10 -7 -10 0 -97 -1 -97 30 -14 30 -13 2 -65 2
-65 -1 -27 -1 -28 9 6 9 5 0 77 0 77 -6 23 -6 22 -13 0 -13 0 -12 15 -12 14 0
82 -1 82 22 18 22 18 -3 63 -3 63 -175 -6z m-283 -25 l-6 -6 -13 5 -13 5 19 1
19 1 -6 -6z m-267 -10 l-15 -3 -42 -3 -43 -4 0 8 0 8 58 -1 57 -1 -15 -4z"/>
<path d="M5330 2690 l-25 -8 20 0 20 -1 20 9 20 9 -15 -1 -15 0 -25 -8z"/>
<path d="M976 2639 l5 -9 14 0 14 0 5 9 6 9 -25 0 -25 0 6 -9z"/>
<path d="M8725 2499 l-70 -8 -108 -10 -108 -9 -16 -14 -16 -13 -121 -1 -121
-1 -145 -13 -145 -13 -162 -27 -163 -27 0 11 0 11 -8 -12 -7 -11 -84 -12 -85
-11 -20 10 -21 11 -140 -18 -140 -17 4 -73 3 -72 -16 0 -15 0 4 -27 5 -28 3
-117 4 -118 14 -16 14 -17 2 -91 2 -90 5 -22 6 -22 -13 -9 -12 -10 -39 0 -38
-1 -11 -11 -11 -11 -13 0 -13 0 0 46 0 45 -76 -5 -76 -5 -6 -5 -5 -6 11 0 11
0 4 -17 5 -18 1 18 1 17 61 0 61 0 -4 -40 -4 -40 29 0 28 0 -7 -12 -7 -13 14
13 13 12 23 0 23 0 0 9 0 10 28 3 27 3 0 79 0 79 -8 60 -7 60 -9 11 -9 11 -4
127 -3 128 14 5 14 5 -5 69 -5 69 91 7 91 7 50 0 50 0 45 -1 45 0 70 15 70 16
75 13 75 12 78 2 78 2 127 20 127 20 153 4 152 5 23 14 22 14 110 13 110 12
100 12 100 12 -55 0 -55 0 -70 -8z m-1452 -166 l-13 -5 -12 5 -13 5 25 0 25 0
-12 -5z"/>
<path d="M983 2403 l17 -5 13 5 12 5 -30 0 -30 0 18 -5z"/>
<path d="M1010 2390 l-65 -7 45 -2 45 -2 -33 -14 -33 -14 -14 -15 -15 -15 7
-4 8 -5 90 -2 90 -3 33 2 32 1 0 16 0 15 -22 -7 -23 -8 -30 2 -30 2 -65 0 -65
1 40 21 40 21 48 -1 47 -1 -1 17 -1 17 -5 -12 -5 -13 -9 0 -10 0 6 10 6 10
-23 -2 -23 -1 -65 -7z"/>
<path d="M1210 2337 l0 -4 19 -21 18 -22 91 0 90 0 4 10 3 9 401 7 402 7 18
-8 19 -8 90 2 90 3 8 7 8 8 237 -3 237 -3 -70 10 -70 10 -185 -6 -185 -5 -80
0 -80 0 -415 5 -415 4 -7 -13 -7 -13 -93 4 -92 3 -10 10 -10 10 -8 0 -8 0 0
-3z"/>
<path d="M3125 2320 l140 -8 8 -1 8 -1 -6 -10 -6 -10 8 -1 8 -1 50 -3 50 -3
-34 10 -33 9 5 6 6 5 50 -7 51 -7 0 -8 0 -8 25 -4 25 -5 0 8 0 9 -22 1 -23 0
20 9 20 9 60 -1 60 -1 -35 -6 -35 -6 175 -1 175 -2 75 -17 75 -17 176 -5 177
-6 7 -71 7 -70 10 -19 9 -18 4 -87 4 -87 1 -23 0 -24 10 -16 10 -17 -5 108 -6
107 11 0 11 0 -11 19 -10 20 0 20 0 20 -17 11 -18 11 16 11 16 11 -8 26 -7 26
-9 30 -8 29 -40 9 -40 9 -95 -5 -95 -5 20 8 20 8 -116 0 -117 -1 -9 6 -9 6
-65 5 -64 5 -85 5 -85 6 -315 4 -315 4 140 -8z"/>
<path d="M2958 2313 l13 -5 6 6 6 6 -19 -1 -19 -1 13 -5z"/>
<path d="M6910 2309 l0 -10 10 6 10 6 0 5 0 4 -10 0 -10 0 0 -11z"/>
<path d="M3743 2269 l19 -11 11 11 11 11 -29 0 -30 -1 18 -10z"/>
<path d="M3808 2273 l12 -5 13 5 12 5 -25 0 -25 0 13 -5z"/>
<path d="M3865 2270 l-6 -10 16 0 16 0 -6 10 -6 10 -4 0 -4 0 -6 -10z"/>
<path d="M6760 2099 l0 -10 10 6 10 6 0 5 0 4 -10 0 -10 0 0 -11z"/>
<path d="M6760 1980 l0 -10 11 0 10 0 -6 10 -6 10 -5 0 -4 0 0 -10z"/>
<path d="M4400 1766 l8 -34 -10 -10 -10 -10 10 -18 10 -19 -5 -47 -6 -48 13
-30 12 -30 48 0 48 0 6 -17 7 -16 -11 -7 -11 -7 16 -13 15 -13 102 2 103 2 4
5 4 4 -2 61 -2 61 46 -3 46 -3 7 11 7 10 63 7 62 7 0 -44 0 -44 10 -29 10 -29
115 3 115 3 35 -10 35 -9 -5 9 -6 9 105 0 106 0 1 28 1 27 -2 43 -2 42 61 0
60 0 6 -10 6 -10 39 0 39 0 17 17 17 18 5 -13 4 -12 48 0 49 0 6 -20 6 -19 -6
-39 -5 -39 209 1 209 1 -4 7 -5 7 103 3 103 3 35 -8 35 -7 50 12 49 13 11 55
10 55 50 3 50 3 9 10 10 9 -56 0 -56 0 -12 15 -12 15 -14 0 -14 0 0 -10 0 -10
10 0 10 0 0 -20 0 -20 -9 0 -8 0 5 -50 5 -50 -109 -2 -109 -1 -100 -2 -100 -1
-110 -8 -110 -7 22 17 22 16 -29 31 -29 31 -20 -18 -21 -19 0 -15 0 -14 19 23
19 24 7 -28 8 -28 -9 -9 -9 -8 -46 -6 -45 -7 -3 53 -2 53 -5 17 -5 17 -27 3
-27 3 0 17 0 18 -8 0 -7 0 -9 0 -9 0 5 -19 5 -19 -57 -7 -57 -8 -32 14 -31 14
-57 -3 -56 -3 -5 -22 -5 -22 2 -53 2 -53 -113 2 -113 2 -7 -6 -6 -7 -112 0
-113 0 -13 16 -14 17 -1 54 -1 54 -6 5 -5 5 -71 -7 -71 -7 0 -8 0 -8 -12 4
-13 4 -41 5 -41 5 5 -75 5 -74 -29 0 -29 -1 -73 -2 -72 -2 0 30 0 30 -8 11 -7
11 -43 -1 -44 -1 -9 12 -10 11 0 19 1 18 -1 75 0 75 -6 23 -5 22 -8 0 -8 0 8
-34z"/>
<path d="M4870 1580 l0 -10 11 0 10 0 -6 10 -6 10 -5 0 -4 0 0 -10z"/>
<path d="M6046 1546 l17 -34 19 11 18 12 -17 13 -18 13 -18 10 -17 10 16 -35z"/>
<path d="M6105 1570 l-6 -10 15 6 16 6 0 -10 0 -10 23 -5 22 -6 -25 19 -25 20
-7 0 -7 0 -6 -10z"/>
</g>
</svg>
